<svg width="800" height="280" viewBox="0 0 800 280" fill="none" xmlns="http://www.w3.org/2000/svg">
<path d="M0.000183105 140C0.000183105 84.1057 45.3113 38.7946 101.205 38.7946C157.1 38.7946 202.411 84.1057 202.411 140C202.411 195.894 157.1 241.205 101.205 241.205C45.3113 241.205 0.000183105 195.894 0.000183105 140ZM192.265 140C192.265 89.7088 151.496 48.9399 101.205 48.9399C50.9144 48.9399 10.1455 89.7088 10.1455 140C10.1455 190.291 50.9144 231.06 101.205 231.06C151.496 231.06 192.265 190.291 192.265 140Z" fill="#003CFF"/>
<path d="M68.8736 230.562C67.9368 233.186 69.3015 236.085 71.9689 236.89C83.3675 240.33 95.2969 241.735 107.208 241.027C120.801 240.219 134.09 236.677 146.281 230.613C158.472 224.548 169.314 216.086 178.158 205.733C187.002 195.379 193.665 183.348 197.75 170.359C201.834 157.37 203.256 143.69 201.929 130.139C200.602 116.587 196.555 103.443 190.029 91.4927C183.502 79.5424 174.632 69.0319 163.948 60.5905C154.585 53.1928 143.999 47.5175 132.683 43.8143C130.035 42.9477 127.257 44.5443 126.523 47.2322C125.789 49.9202 127.379 52.6802 130.023 53.5614C140.03 56.8979 149.395 61.9513 157.693 68.5073C167.312 76.1071 175.298 85.5698 181.173 96.3287C187.049 107.088 190.693 118.921 191.887 131.122C193.082 143.322 191.802 155.638 188.125 167.332C184.447 179.026 178.448 189.858 170.486 199.179C162.524 208.5 152.763 216.119 141.787 221.579C130.812 227.039 118.847 230.228 106.61 230.955C96.0537 231.582 85.4819 230.366 75.3656 227.375C72.6938 226.584 69.8104 227.938 68.8736 230.562Z" fill="#FFF151"/>
<path d="M181.327 140C181.327 95.7503 145.455 59.879 101.206 59.879C56.9563 59.879 21.085 95.7503 21.085 140C21.085 184.249 56.9563 220.121 101.206 220.121C145.455 220.121 181.327 184.249 181.327 140ZM26.6934 140C26.6934 98.8478 60.0537 65.4875 101.206 65.4875C142.358 65.4875 175.718 98.8478 175.718 140C175.718 181.152 142.358 214.512 101.206 214.512C60.0537 214.512 26.6934 181.152 26.6934 140Z" fill="#003CFF"/>
<path d="M101.206 217.316C101.206 218.865 99.9495 220.126 98.4017 220.072C80.8536 219.457 63.9629 213.092 50.354 201.915C36.0216 190.143 26.2169 173.764 22.6125 155.571C19.0081 137.377 21.8272 118.497 30.5889 102.15C38.9083 86.6285 52.0961 74.3039 68.0845 67.0455C69.4947 66.4053 71.1367 67.0917 71.7272 68.5234C72.3177 69.9552 71.6329 71.5897 70.2244 72.2337C55.4356 78.9945 43.2381 90.4223 35.5321 104.8C27.3837 120.002 24.762 137.561 28.1141 154.481C31.4662 171.4 40.5845 186.633 53.9136 197.581C66.5192 207.934 82.1524 213.848 98.4019 214.459C99.9495 214.518 101.206 215.768 101.206 217.316Z" fill="#FFF151"/>
<path d="M270.862 119.537C263.688 119.537 257.078 117.846 251.031 114.464C245.086 110.979 240.372 106.316 236.887 100.474C233.505 94.5297 231.814 88.0216 231.814 80.9497C231.814 73.8779 233.505 67.421 236.887 61.579C240.372 55.6346 245.086 50.9713 251.031 47.5891C257.078 44.1044 263.688 42.3621 270.862 42.3621C277.934 42.3621 284.186 43.8482 289.618 46.8204C295.05 49.7927 299.304 53.2773 302.378 57.2745L290.387 67.7285C284.75 61.6815 278.344 58.6581 271.17 58.6581C264.918 58.6581 259.691 60.8104 255.489 65.115C251.389 69.3171 249.339 74.5953 249.339 80.9497C249.339 87.3041 251.389 92.6336 255.489 96.9382C259.691 101.14 264.918 103.241 271.17 103.241C275.27 103.241 279.01 102.37 282.393 100.628C285.775 98.7831 288.696 96.477 291.156 93.7098L303.147 104.318C299.765 108.417 295.306 112.004 289.772 115.079C284.237 118.051 277.934 119.537 270.862 119.537ZM349.982 119.537C342.808 119.537 336.197 117.846 330.15 114.464C324.206 110.979 319.491 106.316 316.007 100.474C312.624 94.5297 310.933 88.0216 310.933 80.9497C310.933 73.8779 312.624 67.421 316.007 61.579C319.491 55.6346 324.206 50.9713 330.15 47.5891C336.197 44.1044 342.808 42.3621 349.982 42.3621C357.157 42.3621 363.716 44.1044 369.66 47.5891C375.707 50.9713 380.422 55.6346 383.804 61.579C387.289 67.421 389.031 73.8779 389.031 80.9497C389.031 88.0216 387.289 94.5297 383.804 100.474C380.422 106.316 375.707 110.979 369.66 114.464C363.716 117.846 357.157 119.537 349.982 119.537ZM349.982 103.241C353.979 103.241 357.618 102.268 360.897 100.32C364.177 98.3731 366.739 95.7083 368.584 92.3262C370.532 88.944 371.505 85.1518 371.505 80.9497C371.505 76.7476 370.532 72.9555 368.584 69.5733C366.739 66.1911 364.177 63.5264 360.897 61.579C357.618 59.6317 353.979 58.6581 349.982 58.6581C345.985 58.6581 342.347 59.6317 339.067 61.579C335.787 63.5264 333.174 66.1911 331.226 69.5733C329.382 72.9555 328.459 76.7476 328.459 80.9497C328.459 85.1518 329.382 88.944 331.226 92.3262C333.174 95.7083 335.787 98.3731 339.067 100.32C342.347 102.268 345.985 103.241 349.982 103.241ZM405.325 118V43.8995H422.697V54.3535H423.004C424.952 51.2788 427.924 48.5115 431.921 46.0518C436.02 43.592 440.581 42.3621 445.603 42.3621C451.138 42.3621 456.109 43.6945 460.516 46.3592C464.923 48.9215 468.356 52.6111 470.816 57.4282C473.276 62.2452 474.506 67.9334 474.506 74.4928V118H456.98V75.569C456.98 70.4445 455.494 66.3961 452.521 63.4239C449.652 60.3492 445.911 58.8118 441.299 58.8118C435.969 58.8118 431.511 60.6566 427.924 64.3463C424.439 67.9334 422.697 72.5968 422.697 78.3362V118H405.325ZM494.653 118V43.8995H512.026V54.3535H512.333C514.28 51.2788 517.253 48.5115 521.25 46.0518C525.349 43.592 529.91 42.3621 534.932 42.3621C540.467 42.3621 545.437 43.6945 549.844 46.3592C554.252 48.9215 557.685 52.6111 560.145 57.4282C562.605 62.2452 563.834 67.9334 563.834 74.4928V118H546.309V75.569C546.309 70.4445 544.822 66.3961 541.85 63.4239C538.981 60.3492 535.24 58.8118 530.628 58.8118C525.298 58.8118 520.84 60.6566 517.253 64.3463C513.768 67.9334 512.026 72.5968 512.026 78.3362V118H494.653ZM618.419 119.537C611.245 119.537 604.634 117.846 598.587 114.464C592.643 110.979 587.928 106.316 584.443 100.474C581.061 94.5297 579.37 88.0216 579.37 80.9497C579.37 73.8779 581.061 67.421 584.443 61.579C587.928 55.6346 592.591 50.9713 598.433 47.5891C604.275 44.1044 610.63 42.3621 617.497 42.3621C624.466 42.3621 630.718 43.9507 636.252 47.1279C641.889 50.3051 646.296 54.7122 649.474 60.3492C652.651 65.8836 654.239 72.0843 654.239 78.9512C654.239 81.6159 653.983 84.2294 653.471 86.7917H597.511C598.228 91.4037 600.637 95.4009 604.736 98.7831C608.836 102.063 613.756 103.703 619.495 103.703C627.079 103.703 633.793 100.884 639.634 95.2471L649.935 106.47C647.065 109.955 642.863 113.029 637.328 115.694C631.794 118.256 625.491 119.537 618.419 119.537ZM636.252 73.7242C635.227 68.8046 633.075 64.91 629.795 62.0403C626.618 59.068 622.519 57.5819 617.497 57.5819C612.27 57.5819 607.914 59.0168 604.429 61.8865C601.047 64.7562 598.69 68.7021 597.357 73.7242H636.252ZM704.145 119.537C696.97 119.537 690.36 117.846 684.313 114.464C678.368 110.979 673.654 106.316 670.169 100.474C666.787 94.5297 665.096 88.0216 665.096 80.9497C665.096 73.8779 666.787 67.421 670.169 61.579C673.654 55.6346 678.368 50.9713 684.313 47.5891C690.36 44.1044 696.97 42.3621 704.145 42.3621C711.216 42.3621 717.468 43.8482 722.9 46.8204C728.332 49.7927 732.586 53.2773 735.66 57.2745L723.669 67.7285C718.032 61.6815 711.626 58.6581 704.452 58.6581C698.2 58.6581 692.973 60.8104 688.771 65.115C684.671 69.3171 682.622 74.5953 682.622 80.9497C682.622 87.3041 684.671 92.6336 688.771 96.9382C692.973 101.14 698.2 103.241 704.452 103.241C708.552 103.241 712.293 102.37 715.675 100.628C719.057 98.7831 721.978 96.477 724.438 93.7098L736.429 104.318C733.047 108.417 728.588 112.004 723.054 115.079C717.52 118.051 711.216 119.537 704.145 119.537ZM780.769 118.769C773.287 118.769 767.445 116.565 763.243 112.158C759.041 107.751 756.94 101.448 756.94 93.2486V60.1954H743.718V43.8995H751.405C756.325 43.8995 758.784 41.0297 758.784 35.2903V19.6092H774.312V43.8995H791.53V60.1954H774.312V91.25C774.312 98.6293 777.796 102.319 784.766 102.319C787.123 102.319 789.89 101.602 793.067 100.167V116.463C791.735 117.078 789.941 117.59 787.687 118C785.432 118.512 783.126 118.769 780.769 118.769ZM270.862 258.537C263.688 258.537 257.078 256.846 251.031 253.464C245.086 249.979 240.372 245.316 236.887 239.474C233.505 233.53 231.814 227.022 231.814 219.95C231.814 212.878 233.505 206.421 236.887 200.579C240.372 194.635 245.086 189.971 251.031 186.589C257.078 183.104 263.688 181.362 270.862 181.362C277.934 181.362 284.186 182.848 289.618 185.82C295.05 188.793 299.304 192.277 302.378 196.274L290.387 206.728C284.75 200.682 278.344 197.658 271.17 197.658C264.918 197.658 259.691 199.81 255.489 204.115C251.389 208.317 249.339 213.595 249.339 219.95C249.339 226.304 251.389 231.634 255.489 235.938C259.691 240.14 264.918 242.241 271.17 242.241C275.27 242.241 279.01 241.37 282.393 239.628C285.775 237.783 288.696 235.477 291.156 232.71L303.147 243.318C299.765 247.417 295.306 251.004 289.772 254.079C284.237 257.051 277.934 258.537 270.862 258.537ZM335.188 257H317.815V182.899H335.188V257ZM326.578 170.139C323.811 170.139 321.403 169.166 319.353 167.218C317.303 165.271 316.278 162.863 316.278 159.993C316.278 157.123 317.303 154.715 319.353 152.767C321.403 150.82 323.811 149.846 326.578 149.846C329.243 149.846 331.6 150.82 333.65 152.767C335.7 154.715 336.725 157.123 336.725 159.993C336.725 162.863 335.7 165.271 333.65 167.218C331.6 169.166 329.243 170.139 326.578 170.139ZM356.832 257V182.899H374.204V192.431H374.511C376.459 189.561 379.38 186.999 383.274 184.744C387.169 182.489 391.474 181.362 396.188 181.362H399.878V199.81C397.111 199.195 395.01 198.888 393.575 198.888C388.143 198.888 383.531 200.887 379.738 204.884C376.049 208.881 374.204 214.057 374.204 220.411V257H356.832ZM446.367 258.537C439.193 258.537 432.582 256.846 426.535 253.464C420.591 249.979 415.876 245.316 412.392 239.474C409.009 233.53 407.318 227.022 407.318 219.95C407.318 212.878 409.009 206.421 412.392 200.579C415.876 194.635 420.591 189.971 426.535 186.589C432.582 183.104 439.193 181.362 446.367 181.362C453.439 181.362 459.691 182.848 465.123 185.82C470.555 188.793 474.808 192.277 477.883 196.274L465.892 206.728C460.255 200.682 453.849 197.658 446.675 197.658C440.423 197.658 435.196 199.81 430.994 204.115C426.894 208.317 424.844 213.595 424.844 219.95C424.844 226.304 426.894 231.634 430.994 235.938C435.196 240.14 440.423 242.241 446.675 242.241C450.774 242.241 454.515 241.37 457.897 239.628C461.28 237.783 464.201 235.477 466.66 232.71L478.652 243.318C475.27 247.417 470.811 251.004 465.277 254.079C459.742 257.051 453.439 258.537 446.367 258.537ZM510.692 257H493.32V149.385H510.692V257ZM566.773 258.537C559.599 258.537 552.988 256.846 546.942 253.464C540.997 249.979 536.283 245.316 532.798 239.474C529.416 233.53 527.725 227.022 527.725 219.95C527.725 212.878 529.416 206.421 532.798 200.579C536.283 194.635 540.946 189.971 546.788 186.589C552.63 183.104 558.984 181.362 565.851 181.362C572.82 181.362 579.072 182.951 584.607 186.128C590.244 189.305 594.651 193.712 597.828 199.349C601.005 204.884 602.594 211.084 602.594 217.951C602.594 220.616 602.338 223.229 601.825 225.792H545.865C546.583 230.404 548.991 234.401 553.091 237.783C557.191 241.063 562.11 242.703 567.85 242.703C575.434 242.703 582.147 239.884 587.989 234.247L598.289 245.47C595.419 248.955 591.217 252.029 585.683 254.694C580.148 257.256 573.845 258.537 566.773 258.537ZM584.607 212.724C583.582 207.805 581.43 203.91 578.15 201.04C574.973 198.068 570.873 196.582 565.851 196.582C560.624 196.582 556.268 198.017 552.783 200.887C549.401 203.756 547.044 207.702 545.712 212.724H584.607Z" fill="white"/>
</svg>
