<svg width="648" height="246" viewBox="0 0 648 246" fill="none" xmlns="http://www.w3.org/2000/svg">
<rect width="648" height="246" fill="white"/>
<path d="M246 123C246 190.931 190.931 246 123 246C55.069 246 0 190.931 0 123C0 55.069 55.069 0 123 0C190.931 0 246 55.069 246 123Z" fill="black"/>
<path d="M246 123C246 190.931 190.931 246 123 246C55.069 246 0 190.931 0 123C0 55.069 55.069 0 123 0C190.931 0 246 55.069 246 123Z" fill="black" style="mix-blend-mode:exclusion"/>
<path d="M437.688 66V61.824H447.408V22.296H438.12V18.12H452.664V61.824H462.312V66H437.688Z" fill="black"/>
<path d="M475.2 66V61.824H483.624V37.272H475.632V33.096H488.808V61.824H496.512V66H475.2ZM485.928 26.184C484.92 26.184 484.056 25.824 483.336 25.104C482.616 24.384 482.256 23.52 482.256 22.512C482.256 21.456 482.592 20.568 483.264 19.848C483.984 19.128 484.872 18.768 485.928 18.768C486.936 18.768 487.8 19.152 488.52 19.92C489.288 20.64 489.672 21.504 489.672 22.512C489.672 23.52 489.288 24.384 488.52 25.104C487.8 25.824 486.936 26.184 485.928 26.184Z" fill="black"/>
<path d="M509.184 66V33.096H514.224V38.928C515.088 37.584 516.096 36.432 517.248 35.472C518.4 34.464 519.672 33.696 521.064 33.168C522.456 32.592 523.896 32.304 525.384 32.304C527.208 32.304 528.84 32.76 530.28 33.672C531.72 34.584 532.872 36.048 533.736 38.064C534.6 40.08 535.032 42.744 535.032 46.056V66H529.992V46.2C529.992 43.896 529.728 42.072 529.2 40.728C528.672 39.336 527.952 38.352 527.04 37.776C526.128 37.152 525.096 36.84 523.944 36.84C522.84 36.84 521.712 37.08 520.56 37.56C519.456 38.04 518.424 38.736 517.464 39.648C516.504 40.512 515.712 41.568 515.088 42.816C514.512 44.064 514.224 45.48 514.224 47.064V66H509.184Z" fill="black"/>
<path d="M556.848 66.72C555.168 66.72 553.512 66.36 551.88 65.64C550.296 64.92 548.832 63.84 547.488 62.4C546.192 60.96 545.16 59.136 544.392 56.928C543.624 54.72 543.24 52.152 543.24 49.224C543.24 46.2 543.648 43.632 544.464 41.52C545.28 39.36 546.36 37.608 547.704 36.264C549.048 34.872 550.536 33.864 552.168 33.24C553.8 32.568 555.456 32.232 557.136 32.232C558.672 32.232 560.04 32.472 561.24 32.952C562.488 33.432 563.568 34.104 564.48 34.968C565.44 35.784 566.184 36.768 566.712 37.92V18.12H572.184V18.624C571.896 18.912 571.704 19.224 571.608 19.56C571.56 19.896 571.536 20.472 571.536 21.288L571.608 60.888C571.608 61.752 571.632 62.616 571.68 63.48C571.776 64.296 571.992 65.136 572.328 66H567.216C566.976 65.424 566.808 64.848 566.712 64.272C566.616 63.696 566.544 63.144 566.496 62.616C566.496 62.04 566.496 61.464 566.496 60.888C565.824 62.04 565.008 63.072 564.048 63.984C563.088 64.848 562.008 65.52 560.808 66C559.608 66.48 558.288 66.72 556.848 66.72ZM557.64 62.184C559.224 62.184 560.568 61.872 561.672 61.248C562.776 60.576 563.664 59.664 564.336 58.512C565.008 57.312 565.488 55.944 565.776 54.408C566.112 52.824 566.28 51.144 566.28 49.368C566.28 46.92 565.968 44.736 565.344 42.816C564.72 40.848 563.736 39.312 562.392 38.208C561.048 37.056 559.32 36.48 557.208 36.48C555.768 36.48 554.472 36.768 553.32 37.344C552.216 37.872 551.28 38.664 550.512 39.72C549.792 40.776 549.24 42.048 548.856 43.536C548.472 44.976 548.28 46.608 548.28 48.432C548.28 51.168 548.64 53.568 549.36 55.632C550.08 57.696 551.136 59.304 552.528 60.456C553.92 61.608 555.624 62.184 557.64 62.184Z" fill="black"/>
<path d="M591.192 66.792C587.448 66.792 584.568 65.952 582.552 64.272C580.536 62.544 579.528 60.36 579.528 57.72C579.528 55.944 579.96 54.36 580.824 52.968C581.688 51.528 582.864 50.328 584.352 49.368C585.888 48.36 587.664 47.592 589.68 47.064C591.696 46.536 593.832 46.272 596.088 46.272C596.904 46.272 597.72 46.296 598.536 46.344C599.4 46.344 600.288 46.392 601.2 46.488C602.16 46.536 603.144 46.632 604.152 46.776L604.296 50.736C603.432 50.592 602.544 50.496 601.632 50.448C600.768 50.352 599.904 50.28 599.04 50.232C598.176 50.184 597.336 50.16 596.52 50.16C594.792 50.16 593.208 50.304 591.768 50.592C590.328 50.88 589.08 51.312 588.024 51.888C586.968 52.464 586.152 53.208 585.576 54.12C585 55.032 584.712 56.136 584.712 57.432C584.712 58.44 584.88 59.304 585.216 60.024C585.6 60.696 586.104 61.248 586.728 61.68C587.352 62.064 588.072 62.352 588.888 62.544C589.752 62.736 590.688 62.832 591.696 62.832C593.568 62.832 595.224 62.544 596.664 61.968C598.152 61.344 599.4 60.456 600.408 59.304C601.464 58.152 602.256 56.736 602.784 55.056C603.312 53.376 603.576 51.456 603.576 49.296C603.576 46.032 603.192 43.488 602.424 41.664C601.656 39.84 600.504 38.544 598.968 37.776C597.48 37.008 595.56 36.624 593.208 36.624C591.624 36.624 590.064 36.936 588.528 37.56C586.992 38.136 585.6 39.048 584.352 40.296L581.832 36.984C583.368 35.448 585.144 34.296 587.16 33.528C589.176 32.76 591.312 32.376 593.568 32.376C595.728 32.376 597.696 32.64 599.472 33.168C601.248 33.696 602.76 34.584 604.008 35.832C605.304 37.032 606.288 38.664 606.96 40.728C607.68 42.792 608.04 45.384 608.04 48.504V66H602.424V60.96C601.8 62.16 601.032 63.144 600.12 63.912C599.256 64.68 598.32 65.28 597.312 65.712C596.304 66.096 595.272 66.36 594.216 66.504C593.16 66.696 592.152 66.792 591.192 66.792Z" fill="black"/>
<path d="M448.848 144.72C447.168 144.72 445.512 144.36 443.88 143.64C442.296 142.92 440.832 141.84 439.488 140.4C438.192 138.96 437.16 137.136 436.392 134.928C435.624 132.72 435.24 130.152 435.24 127.224C435.24 124.2 435.648 121.632 436.464 119.52C437.28 117.36 438.36 115.608 439.704 114.264C441.048 112.872 442.536 111.864 444.168 111.24C445.8 110.568 447.456 110.232 449.136 110.232C450.672 110.232 452.04 110.472 453.24 110.952C454.488 111.432 455.568 112.104 456.48 112.968C457.44 113.784 458.184 114.768 458.712 115.92V96.12H464.184V96.624C463.896 96.912 463.704 97.224 463.608 97.56C463.56 97.896 463.536 98.472 463.536 99.288L463.608 138.888C463.608 139.752 463.632 140.616 463.68 141.48C463.776 142.296 463.992 143.136 464.328 144H459.216C458.976 143.424 458.808 142.848 458.712 142.272C458.616 141.696 458.544 141.144 458.496 140.616C458.496 140.04 458.496 139.464 458.496 138.888C457.824 140.04 457.008 141.072 456.048 141.984C455.088 142.848 454.008 143.52 452.808 144C451.608 144.48 450.288 144.72 448.848 144.72ZM449.64 140.184C451.224 140.184 452.568 139.872 453.672 139.248C454.776 138.576 455.664 137.664 456.336 136.512C457.008 135.312 457.488 133.944 457.776 132.408C458.112 130.824 458.28 129.144 458.28 127.368C458.28 124.92 457.968 122.736 457.344 120.816C456.72 118.848 455.736 117.312 454.392 116.208C453.048 115.056 451.32 114.48 449.208 114.48C447.768 114.48 446.472 114.768 445.32 115.344C444.216 115.872 443.28 116.664 442.512 117.72C441.792 118.776 441.24 120.048 440.856 121.536C440.472 122.976 440.28 124.608 440.28 126.432C440.28 129.168 440.64 131.568 441.36 133.632C442.08 135.696 443.136 137.304 444.528 138.456C445.92 139.608 447.624 140.184 449.64 140.184Z" fill="black"/>
<path d="M487.584 144.72C485.184 144.72 483 144.36 481.032 143.64C479.064 142.872 477.36 141.768 475.92 140.328C474.528 138.888 473.448 137.112 472.68 135C471.912 132.84 471.528 130.392 471.528 127.656C471.528 124.872 471.912 122.4 472.68 120.24C473.496 118.08 474.576 116.28 475.92 114.84C477.312 113.352 478.92 112.224 480.744 111.456C482.616 110.688 484.584 110.304 486.648 110.304C488.52 110.304 490.272 110.616 491.904 111.24C493.536 111.864 494.952 112.824 496.152 114.12C497.352 115.368 498.288 116.976 498.96 118.944C499.68 120.912 500.04 123.24 500.04 125.928C500.04 126.312 500.016 126.72 499.968 127.152C499.968 127.536 499.944 127.92 499.896 128.304H476.496C476.592 130.416 476.952 132.264 477.576 133.848C478.2 135.384 479.016 136.656 480.024 137.664C481.032 138.624 482.184 139.344 483.48 139.824C484.824 140.304 486.24 140.544 487.728 140.544C488.88 140.544 489.96 140.424 490.968 140.184C491.976 139.896 492.912 139.488 493.776 138.96C494.688 138.384 495.504 137.688 496.224 136.872L499.104 139.68C498.192 140.784 497.136 141.72 495.936 142.488C494.784 143.256 493.512 143.808 492.12 144.144C490.728 144.528 489.216 144.72 487.584 144.72ZM476.712 124.272H494.784C494.784 122.736 494.568 121.368 494.136 120.168C493.752 118.92 493.176 117.864 492.408 117C491.688 116.088 490.8 115.416 489.744 114.984C488.736 114.504 487.584 114.264 486.288 114.264C485.136 114.264 484.032 114.456 482.976 114.84C481.968 115.224 481.032 115.848 480.168 116.712C479.304 117.528 478.56 118.56 477.936 119.808C477.36 121.056 476.952 122.544 476.712 124.272Z" fill="black"/>
<path d="M522.072 144.72C520.248 144.72 518.496 144.528 516.816 144.144C515.184 143.76 513.624 143.184 512.136 142.416C510.696 141.648 509.352 140.688 508.104 139.536L510.984 134.64L511.416 133.992L511.848 134.28C511.944 134.664 512.04 135.072 512.136 135.504C512.28 135.888 512.616 136.368 513.144 136.944C514.152 137.952 515.352 138.792 516.744 139.464C518.184 140.088 520.008 140.4 522.216 140.4C523.992 140.4 525.48 140.184 526.68 139.752C527.928 139.32 528.888 138.72 529.56 137.952C530.232 137.136 530.568 136.2 530.568 135.144C530.568 134.424 530.424 133.8 530.136 133.272C529.848 132.696 529.368 132.168 528.696 131.688C528.072 131.208 527.232 130.728 526.176 130.248C525.12 129.768 523.824 129.288 522.288 128.808C519.792 128.088 517.608 127.248 515.736 126.288C513.864 125.328 512.424 124.224 511.416 122.976C510.408 121.68 509.904 120.216 509.904 118.584C509.904 116.904 510.36 115.464 511.272 114.264C512.184 113.016 513.528 112.056 515.304 111.384C517.128 110.664 519.36 110.304 522 110.304C523.536 110.304 524.928 110.424 526.176 110.664C527.424 110.856 528.576 111.168 529.632 111.6C530.688 112.032 531.648 112.584 532.512 113.256C533.424 113.88 534.288 114.624 535.104 115.488L532.152 119.088L531.648 119.664L531.288 119.304C531.24 118.92 531.12 118.56 530.928 118.224C530.784 117.84 530.448 117.384 529.92 116.856C528.816 115.992 527.568 115.344 526.176 114.912C524.784 114.432 523.44 114.192 522.144 114.192C520.224 114.192 518.568 114.528 517.176 115.2C515.784 115.872 515.088 116.904 515.088 118.296C515.088 119.016 515.328 119.736 515.808 120.456C516.336 121.128 517.272 121.824 518.616 122.544C519.96 123.216 521.88 123.912 524.376 124.632C527.112 125.496 529.296 126.384 530.928 127.296C532.608 128.16 533.808 129.168 534.528 130.32C535.296 131.472 535.68 132.84 535.68 134.424C535.68 136.248 535.176 137.952 534.168 139.536C533.208 141.12 531.72 142.392 529.704 143.352C527.688 144.264 525.144 144.72 522.072 144.72Z" fill="black"/>
<path d="M547.2 144V139.824H555.624V115.272H547.632V111.096H560.808V139.824H568.512V144H547.2ZM557.928 104.184C556.92 104.184 556.056 103.824 555.336 103.104C554.616 102.384 554.256 101.52 554.256 100.512C554.256 99.456 554.592 98.568 555.264 97.848C555.984 97.128 556.872 96.768 557.928 96.768C558.936 96.768 559.8 97.152 560.52 97.92C561.288 98.64 561.672 99.504 561.672 100.512C561.672 101.52 561.288 102.384 560.52 103.104C559.8 103.824 558.936 104.184 557.928 104.184Z" fill="black"/>
<path d="M593.784 156.384C591.48 156.384 589.392 156.192 587.52 155.808C585.696 155.472 584.112 154.944 582.768 154.224C581.472 153.552 580.464 152.688 579.744 151.632C579.072 150.576 578.736 149.328 578.736 147.888C578.736 146.544 579.024 145.344 579.6 144.288C580.176 143.232 580.92 142.368 581.832 141.696C582.792 140.976 583.824 140.448 584.928 140.112L587.088 141.408C586.224 141.936 585.528 142.464 585 142.992C584.472 143.52 584.088 144.12 583.848 144.792C583.608 145.512 583.488 146.352 583.488 147.312C583.488 148.128 583.728 148.848 584.208 149.472C584.688 150.144 585.36 150.696 586.224 151.128C587.136 151.56 588.216 151.896 589.464 152.136C590.76 152.376 592.224 152.496 593.856 152.496C596.064 152.496 597.84 152.256 599.184 151.776C600.576 151.344 601.608 150.72 602.28 149.904C602.952 149.136 603.288 148.248 603.288 147.24C603.288 146.184 603.096 145.32 602.712 144.648C602.328 143.976 601.536 143.472 600.336 143.136C599.136 142.8 597.312 142.632 594.864 142.632C593.184 142.632 591.648 142.56 590.256 142.416C588.864 142.272 587.616 142.032 586.512 141.696C585.408 141.36 584.472 140.952 583.704 140.472C582.984 139.944 582.432 139.32 582.048 138.6C581.664 137.88 581.472 137.04 581.472 136.08C581.472 134.832 581.808 133.632 582.48 132.48C583.2 131.328 584.16 130.224 585.36 129.168L587.808 131.112C587.328 131.64 586.944 132.12 586.656 132.552C586.368 132.936 586.152 133.32 586.008 133.704C585.912 134.04 585.864 134.424 585.864 134.856C585.864 135.624 586.152 136.248 586.728 136.728C587.352 137.208 588.408 137.568 589.896 137.808C591.384 138 593.4 138.096 595.944 138.096C598.488 138.096 600.552 138.312 602.136 138.744C603.72 139.128 604.92 139.704 605.736 140.472C606.6 141.24 607.2 142.128 607.536 143.136C607.872 144.144 608.04 145.248 608.04 146.448C608.04 147.744 607.776 148.968 607.248 150.12C606.768 151.32 605.976 152.376 604.872 153.288C603.768 154.248 602.304 154.992 600.48 155.52C598.656 156.096 596.424 156.384 593.784 156.384ZM592.272 132.84C589.92 132.84 587.88 132.336 586.152 131.328C584.424 130.272 583.08 128.88 582.12 127.152C581.208 125.376 580.752 123.432 580.752 121.32C580.752 119.208 581.208 117.288 582.12 115.56C583.08 113.832 584.424 112.464 586.152 111.456C587.88 110.4 589.92 109.872 592.272 109.872C594.672 109.872 596.712 110.4 598.392 111.456C600.12 112.464 601.44 113.832 602.352 115.56C603.312 117.288 603.792 119.208 603.792 121.32C603.792 123.432 603.312 125.376 602.352 127.152C601.44 128.88 600.12 130.272 598.392 131.328C596.712 132.336 594.672 132.84 592.272 132.84ZM592.272 128.52C593.664 128.52 594.888 128.208 595.944 127.584C597.048 126.912 597.912 126.024 598.536 124.92C599.16 123.816 599.472 122.616 599.472 121.32C599.472 119.976 599.16 118.776 598.536 117.72C597.912 116.616 597.048 115.752 595.944 115.128C594.888 114.456 593.664 114.12 592.272 114.12C590.88 114.12 589.632 114.456 588.528 115.128C587.472 115.752 586.632 116.616 586.008 117.72C585.384 118.776 585.072 119.976 585.072 121.32C585.072 122.616 585.384 123.816 586.008 124.92C586.632 126.024 587.472 126.912 588.528 127.584C589.632 128.208 590.88 128.52 592.272 128.52ZM601.848 116.424L599.832 114.048C601.224 112.656 602.664 111.648 604.152 111.024C605.688 110.352 607.488 110.088 609.552 110.232L610.2 114.48C608.616 114.336 607.128 114.384 605.736 114.624C604.344 114.864 603.048 115.464 601.848 116.424Z" fill="black"/>
<path d="M617.184 144V111.096H622.224V116.928C623.088 115.584 624.096 114.432 625.248 113.472C626.4 112.464 627.672 111.696 629.064 111.168C630.456 110.592 631.896 110.304 633.384 110.304C635.208 110.304 636.84 110.76 638.28 111.672C639.72 112.584 640.872 114.048 641.736 116.064C642.6 118.08 643.032 120.744 643.032 124.056V144H637.992V124.2C637.992 121.896 637.728 120.072 637.2 118.728C636.672 117.336 635.952 116.352 635.04 115.776C634.128 115.152 633.096 114.84 631.944 114.84C630.84 114.84 629.712 115.08 628.56 115.56C627.456 116.04 626.424 116.736 625.464 117.648C624.504 118.512 623.712 119.568 623.088 120.816C622.512 122.064 622.224 123.48 622.224 125.064V144H617.184Z" fill="black"/>
<path d="M439.776 222.072L433.152 189.096H437.688L443.016 215.52L448.632 192.192H451.8L458.784 215.448C459.408 211.176 459.912 207.672 460.296 204.936C460.728 202.2 461.04 199.968 461.232 198.24C461.472 196.464 461.616 194.976 461.664 193.776C461.76 192.576 461.808 191.376 461.808 190.176V189.096H466.632C466.152 192.792 465.624 196.488 465.048 200.184C464.52 203.832 463.92 207.48 463.248 211.128C462.624 214.776 461.928 218.424 461.16 222.072H456.264L450.216 200.76L444.456 222.072H439.776Z" fill="black"/>
<path d="M486 222.576C483.024 222.576 480.384 221.856 478.08 220.416C475.824 218.928 474.048 216.912 472.752 214.368C471.456 211.776 470.808 208.824 470.808 205.512C470.808 202.152 471.456 199.2 472.752 196.656C474.048 194.064 475.824 192.048 478.08 190.608C480.384 189.12 483.024 188.376 486 188.376C488.976 188.376 491.592 189.12 493.848 190.608C496.152 192.048 497.952 194.064 499.248 196.656C500.544 199.2 501.192 202.152 501.192 205.512C501.192 208.824 500.544 211.776 499.248 214.368C497.952 216.912 496.152 218.928 493.848 220.416C491.592 221.856 488.976 222.576 486 222.576ZM486 218.256C487.92 218.256 489.6 217.704 491.04 216.6C492.48 215.496 493.608 213.984 494.424 212.064C495.288 210.144 495.72 207.936 495.72 205.44C495.72 202.944 495.288 200.736 494.424 198.816C493.608 196.896 492.48 195.408 491.04 194.352C489.6 193.248 487.92 192.696 486 192.696C484.128 192.696 482.448 193.248 480.96 194.352C479.52 195.408 478.368 196.896 477.504 198.816C476.688 200.736 476.28 202.944 476.28 205.44C476.28 207.936 476.688 210.144 477.504 212.064C478.368 213.984 479.52 215.496 480.96 216.6C482.448 217.704 484.128 218.256 486 218.256Z" fill="black"/>
<path d="M512.568 189.096H517.968L517.752 198.672L517.104 197.592C517.392 196.104 517.896 194.784 518.616 193.632C519.336 192.48 520.2 191.52 521.208 190.752C522.216 189.936 523.32 189.336 524.52 188.952C525.72 188.52 526.968 188.304 528.264 188.304C529.992 188.304 531.576 188.616 533.016 189.24C534.504 189.816 535.824 190.704 536.976 191.904L534.672 195.936L534.384 196.584L533.88 196.296C533.784 195.912 533.64 195.552 533.448 195.216C533.256 194.88 532.848 194.472 532.224 193.992C531.456 193.512 530.736 193.2 530.064 193.056C529.44 192.864 528.72 192.768 527.904 192.768C526.704 192.768 525.504 193.008 524.304 193.488C523.104 193.92 522 194.616 520.992 195.576C520.032 196.536 519.264 197.76 518.688 199.248C518.112 200.736 517.824 202.512 517.824 204.576V222.072H512.568V189.096Z" fill="black"/>
<path d="M554.328 205.512L550.008 209.544V222H544.752V174.12H550.656V174.624C550.368 174.912 550.176 175.224 550.08 175.56C550.032 175.896 550.008 176.472 550.008 177.288V204.216L566.496 188.952C566.784 189 567.072 189.048 567.36 189.096C567.648 189.144 567.936 189.192 568.224 189.24C568.56 189.24 568.896 189.264 569.232 189.312C569.616 189.312 569.976 189.312 570.312 189.312H572.184L558.36 202.344L574.488 222L567.792 222.288L554.328 205.512Z" fill="black"/>
<path d="M434.88 85.44C434.88 86.2353 434.235 86.88 433.44 86.88C432.645 86.88 432 86.2353 432 85.44C432 84.6447 432.645 84 433.44 84C434.235 84 434.88 84.6447 434.88 85.44ZM440.64 85.44C440.64 86.2353 439.995 86.88 439.2 86.88C438.405 86.88 437.76 86.2353 437.76 85.44C437.76 84.6447 438.405 84 439.2 84C439.995 84 440.64 84.6447 440.64 85.44ZM446.4 85.44C446.4 86.2353 445.755 86.88 444.96 86.88C444.165 86.88 443.52 86.2353 443.52 85.44C443.52 84.6447 444.165 84 444.96 84C445.755 84 446.4 84.6447 446.4 85.44ZM452.16 85.44C452.16 86.2353 451.515 86.88 450.72 86.88C449.925 86.88 449.28 86.2353 449.28 85.44C449.28 84.6447 449.925 84 450.72 84C451.515 84 452.16 84.6447 452.16 85.44ZM457.92 85.44C457.92 86.2353 457.275 86.88 456.48 86.88C455.685 86.88 455.04 86.2353 455.04 85.44C455.04 84.6447 455.685 84 456.48 84C457.275 84 457.92 84.6447 457.92 85.44ZM463.68 85.44C463.68 86.2353 463.035 86.88 462.24 86.88C461.445 86.88 460.8 86.2353 460.8 85.44C460.8 84.6447 461.445 84 462.24 84C463.035 84 463.68 84.6447 463.68 85.44ZM469.44 85.44C469.44 86.2353 468.795 86.88 468 86.88C467.205 86.88 466.56 86.2353 466.56 85.44C466.56 84.6447 467.205 84 468 84C468.795 84 469.44 84.6447 469.44 85.44ZM475.2 85.44C475.2 86.2353 474.555 86.88 473.76 86.88C472.965 86.88 472.32 86.2353 472.32 85.44C472.32 84.6447 472.965 84 473.76 84C474.555 84 475.2 84.6447 475.2 85.44ZM480.96 85.44C480.96 86.2353 480.315 86.88 479.52 86.88C478.725 86.88 478.08 86.2353 478.08 85.44C478.08 84.6447 478.725 84 479.52 84C480.315 84 480.96 84.6447 480.96 85.44ZM486.72 85.44C486.72 86.2353 486.075 86.88 485.28 86.88C484.485 86.88 483.84 86.2353 483.84 85.44C483.84 84.6447 484.485 84 485.28 84C486.075 84 486.72 84.6447 486.72 85.44ZM492.48 85.44C492.48 86.2353 491.835 86.88 491.04 86.88C490.245 86.88 489.6 86.2353 489.6 85.44C489.6 84.6447 490.245 84 491.04 84C491.835 84 492.48 84.6447 492.48 85.44ZM498.24 85.44C498.24 86.2353 497.595 86.88 496.8 86.88C496.005 86.88 495.36 86.2353 495.36 85.44C495.36 84.6447 496.005 84 496.8 84C497.595 84 498.24 84.6447 498.24 85.44ZM504 85.44C504 86.2353 503.355 86.88 502.56 86.88C501.765 86.88 501.12 86.2353 501.12 85.44C501.12 84.6447 501.765 84 502.56 84C503.355 84 504 84.6447 504 85.44ZM509.76 85.44C509.76 86.2353 509.115 86.88 508.32 86.88C507.525 86.88 506.88 86.2353 506.88 85.44C506.88 84.6447 507.525 84 508.32 84C509.115 84 509.76 84.6447 509.76 85.44ZM515.52 85.44C515.52 86.2353 514.875 86.88 514.08 86.88C513.285 86.88 512.64 86.2353 512.64 85.44C512.64 84.6447 513.285 84 514.08 84C514.875 84 515.52 84.6447 515.52 85.44ZM521.28 85.44C521.28 86.2353 520.635 86.88 519.84 86.88C519.045 86.88 518.4 86.2353 518.4 85.44C518.4 84.6447 519.045 84 519.84 84C520.635 84 521.28 84.6447 521.28 85.44ZM527.04 85.44C527.04 86.2353 526.395 86.88 525.6 86.88C524.805 86.88 524.16 86.2353 524.16 85.44C524.16 84.6447 524.805 84 525.6 84C526.395 84 527.04 84.6447 527.04 85.44ZM532.8 85.44C532.8 86.2353 532.155 86.88 531.36 86.88C530.565 86.88 529.92 86.2353 529.92 85.44C529.92 84.6447 530.565 84 531.36 84C532.155 84 532.8 84.6447 532.8 85.44ZM538.56 85.44C538.56 86.2353 537.915 86.88 537.12 86.88C536.325 86.88 535.68 86.2353 535.68 85.44C535.68 84.6447 536.325 84 537.12 84C537.915 84 538.56 84.6447 538.56 85.44ZM544.32 85.44C544.32 86.2353 543.675 86.88 542.88 86.88C542.085 86.88 541.44 86.2353 541.44 85.44C541.44 84.6447 542.085 84 542.88 84C543.675 84 544.32 84.6447 544.32 85.44ZM550.08 85.44C550.08 86.2353 549.435 86.88 548.64 86.88C547.845 86.88 547.2 86.2353 547.2 85.44C547.2 84.6447 547.845 84 548.64 84C549.435 84 550.08 84.6447 550.08 85.44ZM555.84 85.44C555.84 86.2353 555.195 86.88 554.4 86.88C553.605 86.88 552.96 86.2353 552.96 85.44C552.96 84.6447 553.605 84 554.4 84C555.195 84 555.84 84.6447 555.84 85.44ZM561.6 85.44C561.6 86.2353 560.955 86.88 560.16 86.88C559.365 86.88 558.72 86.2353 558.72 85.44C558.72 84.6447 559.365 84 560.16 84C560.955 84 561.6 84.6447 561.6 85.44ZM567.36 85.44C567.36 86.2353 566.715 86.88 565.92 86.88C565.125 86.88 564.48 86.2353 564.48 85.44C564.48 84.6447 565.125 84 565.92 84C566.715 84 567.36 84.6447 567.36 85.44ZM573.12 85.44C573.12 86.2353 572.475 86.88 571.68 86.88C570.885 86.88 570.24 86.2353 570.24 85.44C570.24 84.6447 570.885 84 571.68 84C572.475 84 573.12 84.6447 573.12 85.44ZM578.88 85.44C578.88 86.2353 578.235 86.88 577.44 86.88C576.645 86.88 576 86.2353 576 85.44C576 84.6447 576.645 84 577.44 84C578.235 84 578.88 84.6447 578.88 85.44ZM584.64 85.44C584.64 86.2353 583.995 86.88 583.2 86.88C582.405 86.88 581.76 86.2353 581.76 85.44C581.76 84.6447 582.405 84 583.2 84C583.995 84 584.64 84.6447 584.64 85.44ZM590.4 85.44C590.4 86.2353 589.755 86.88 588.96 86.88C588.165 86.88 587.52 86.2353 587.52 85.44C587.52 84.6447 588.165 84 588.96 84C589.755 84 590.4 84.6447 590.4 85.44ZM596.16 85.44C596.16 86.2353 595.515 86.88 594.72 86.88C593.925 86.88 593.28 86.2353 593.28 85.44C593.28 84.6447 593.925 84 594.72 84C595.515 84 596.16 84.6447 596.16 85.44ZM601.92 85.44C601.92 86.2353 601.275 86.88 600.48 86.88C599.685 86.88 599.04 86.2353 599.04 85.44C599.04 84.6447 599.685 84 600.48 84C601.275 84 601.92 84.6447 601.92 85.44ZM607.68 85.44C607.68 86.2353 607.035 86.88 606.24 86.88C605.445 86.88 604.8 86.2353 604.8 85.44C604.8 84.6447 605.445 84 606.24 84C607.035 84 607.68 84.6447 607.68 85.44ZM434.88 163.44C434.88 164.235 434.235 164.88 433.44 164.88C432.645 164.88 432 164.235 432 163.44C432 162.645 432.645 162 433.44 162C434.235 162 434.88 162.645 434.88 163.44ZM440.64 163.44C440.64 164.235 439.995 164.88 439.2 164.88C438.405 164.88 437.76 164.235 437.76 163.44C437.76 162.645 438.405 162 439.2 162C439.995 162 440.64 162.645 440.64 163.44ZM446.4 163.44C446.4 164.235 445.755 164.88 444.96 164.88C444.165 164.88 443.52 164.235 443.52 163.44C443.52 162.645 444.165 162 444.96 162C445.755 162 446.4 162.645 446.4 163.44ZM452.16 163.44C452.16 164.235 451.515 164.88 450.72 164.88C449.925 164.88 449.28 164.235 449.28 163.44C449.28 162.645 449.925 162 450.72 162C451.515 162 452.16 162.645 452.16 163.44ZM457.92 163.44C457.92 164.235 457.275 164.88 456.48 164.88C455.685 164.88 455.04 164.235 455.04 163.44C455.04 162.645 455.685 162 456.48 162C457.275 162 457.92 162.645 457.92 163.44ZM463.68 163.44C463.68 164.235 463.035 164.88 462.24 164.88C461.445 164.88 460.8 164.235 460.8 163.44C460.8 162.645 461.445 162 462.24 162C463.035 162 463.68 162.645 463.68 163.44ZM469.44 163.44C469.44 164.235 468.795 164.88 468 164.88C467.205 164.88 466.56 164.235 466.56 163.44C466.56 162.645 467.205 162 468 162C468.795 162 469.44 162.645 469.44 163.44ZM475.2 163.44C475.2 164.235 474.555 164.88 473.76 164.88C472.965 164.88 472.32 164.235 472.32 163.44C472.32 162.645 472.965 162 473.76 162C474.555 162 475.2 162.645 475.2 163.44ZM480.96 163.44C480.96 164.235 480.315 164.88 479.52 164.88C478.725 164.88 478.08 164.235 478.08 163.44C478.08 162.645 478.725 162 479.52 162C480.315 162 480.96 162.645 480.96 163.44ZM486.72 163.44C486.72 164.235 486.075 164.88 485.28 164.88C484.485 164.88 483.84 164.235 483.84 163.44C483.84 162.645 484.485 162 485.28 162C486.075 162 486.72 162.645 486.72 163.44ZM492.48 163.44C492.48 164.235 491.835 164.88 491.04 164.88C490.245 164.88 489.6 164.235 489.6 163.44C489.6 162.645 490.245 162 491.04 162C491.835 162 492.48 162.645 492.48 163.44ZM498.24 163.44C498.24 164.235 497.595 164.88 496.8 164.88C496.005 164.88 495.36 164.235 495.36 163.44C495.36 162.645 496.005 162 496.8 162C497.595 162 498.24 162.645 498.24 163.44ZM504 163.44C504 164.235 503.355 164.88 502.56 164.88C501.765 164.88 501.12 164.235 501.12 163.44C501.12 162.645 501.765 162 502.56 162C503.355 162 504 162.645 504 163.44ZM509.76 163.44C509.76 164.235 509.115 164.88 508.32 164.88C507.525 164.88 506.88 164.235 506.88 163.44C506.88 162.645 507.525 162 508.32 162C509.115 162 509.76 162.645 509.76 163.44ZM515.52 163.44C515.52 164.235 514.875 164.88 514.08 164.88C513.285 164.88 512.64 164.235 512.64 163.44C512.64 162.645 513.285 162 514.08 162C514.875 162 515.52 162.645 515.52 163.44ZM521.28 163.44C521.28 164.235 520.635 164.88 519.84 164.88C519.045 164.88 518.4 164.235 518.4 163.44C518.4 162.645 519.045 162 519.84 162C520.635 162 521.28 162.645 521.28 163.44ZM527.04 163.44C527.04 164.235 526.395 164.88 525.6 164.88C524.805 164.88 524.16 164.235 524.16 163.44C524.16 162.645 524.805 162 525.6 162C526.395 162 527.04 162.645 527.04 163.44ZM532.8 163.44C532.8 164.235 532.155 164.88 531.36 164.88C530.565 164.88 529.92 164.235 529.92 163.44C529.92 162.645 530.565 162 531.36 162C532.155 162 532.8 162.645 532.8 163.44ZM538.56 163.44C538.56 164.235 537.915 164.88 537.12 164.88C536.325 164.88 535.68 164.235 535.68 163.44C535.68 162.645 536.325 162 537.12 162C537.915 162 538.56 162.645 538.56 163.44ZM544.32 163.44C544.32 164.235 543.675 164.88 542.88 164.88C542.085 164.88 541.44 164.235 541.44 163.44C541.44 162.645 542.085 162 542.88 162C543.675 162 544.32 162.645 544.32 163.44ZM550.08 163.44C550.08 164.235 549.435 164.88 548.64 164.88C547.845 164.88 547.2 164.235 547.2 163.44C547.2 162.645 547.845 162 548.64 162C549.435 162 550.08 162.645 550.08 163.44ZM555.84 163.44C555.84 164.235 555.195 164.88 554.4 164.88C553.605 164.88 552.96 164.235 552.96 163.44C552.96 162.645 553.605 162 554.4 162C555.195 162 555.84 162.645 555.84 163.44ZM561.6 163.44C561.6 164.235 560.955 164.88 560.16 164.88C559.365 164.88 558.72 164.235 558.72 163.44C558.72 162.645 559.365 162 560.16 162C560.955 162 561.6 162.645 561.6 163.44ZM567.36 163.44C567.36 164.235 566.715 164.88 565.92 164.88C565.125 164.88 564.48 164.235 564.48 163.44C564.48 162.645 565.125 162 565.92 162C566.715 162 567.36 162.645 567.36 163.44ZM573.12 163.44C573.12 164.235 572.475 164.88 571.68 164.88C570.885 164.88 570.24 164.235 570.24 163.44C570.24 162.645 570.885 162 571.68 162C572.475 162 573.12 162.645 573.12 163.44ZM578.88 163.44C578.88 164.235 578.235 164.88 577.44 164.88C576.645 164.88 576 164.235 576 163.44C576 162.645 576.645 162 577.44 162C578.235 162 578.88 162.645 578.88 163.44ZM584.64 163.44C584.64 164.235 583.995 164.88 583.2 164.88C582.405 164.88 581.76 164.235 581.76 163.44C581.76 162.645 582.405 162 583.2 162C583.995 162 584.64 162.645 584.64 163.44ZM590.4 163.44C590.4 164.235 589.755 164.88 588.96 164.88C588.165 164.88 587.52 164.235 587.52 163.44C587.52 162.645 588.165 162 588.96 162C589.755 162 590.4 162.645 590.4 163.44ZM596.16 163.44C596.16 164.235 595.515 164.88 594.72 164.88C593.925 164.88 593.28 164.235 593.28 163.44C593.28 162.645 593.925 162 594.72 162C595.515 162 596.16 162.645 596.16 163.44ZM601.92 163.44C601.92 164.235 601.275 164.88 600.48 164.88C599.685 164.88 599.04 164.235 599.04 163.44C599.04 162.645 599.685 162 600.48 162C601.275 162 601.92 162.645 601.92 163.44ZM607.68 163.44C607.68 164.235 607.035 164.88 606.24 164.88C605.445 164.88 604.8 164.235 604.8 163.44C604.8 162.645 605.445 162 606.24 162C607.035 162 607.68 162.645 607.68 163.44ZM613.44 163.44C613.44 164.235 612.795 164.88 612 164.88C611.205 164.88 610.56 164.235 610.56 163.44C610.56 162.645 611.205 162 612 162C612.795 162 613.44 162.645 613.44 163.44ZM619.2 163.44C619.2 164.235 618.555 164.88 617.76 164.88C616.965 164.88 616.32 164.235 616.32 163.44C616.32 162.645 616.965 162 617.76 162C618.555 162 619.2 162.645 619.2 163.44ZM624.96 163.44C624.96 164.235 624.315 164.88 623.52 164.88C622.725 164.88 622.08 164.235 622.08 163.44C622.08 162.645 622.725 162 623.52 162C624.315 162 624.96 162.645 624.96 163.44ZM630.72 163.44C630.72 164.235 630.075 164.88 629.28 164.88C628.485 164.88 627.84 164.235 627.84 163.44C627.84 162.645 628.485 162 629.28 162C630.075 162 630.72 162.645 630.72 163.44ZM636.48 163.44C636.48 164.235 635.835 164.88 635.04 164.88C634.245 164.88 633.6 164.235 633.6 163.44C633.6 162.645 634.245 162 635.04 162C635.835 162 636.48 162.645 636.48 163.44ZM642.24 163.44C642.24 164.235 641.595 164.88 640.8 164.88C640.005 164.88 639.36 164.235 639.36 163.44C639.36 162.645 640.005 162 640.8 162C641.595 162 642.24 162.645 642.24 163.44ZM648 163.44C648 164.235 647.355 164.88 646.56 164.88C645.764 164.88 645.12 164.235 645.12 163.44C645.12 162.645 645.764 162 646.56 162C647.355 162 648 162.645 648 163.44ZM434.88 241.44C434.88 242.235 434.235 242.88 433.44 242.88C432.645 242.88 432 242.235 432 241.44C432 240.645 432.645 240 433.44 240C434.235 240 434.88 240.645 434.88 241.44ZM440.64 241.44C440.64 242.235 439.995 242.88 439.2 242.88C438.405 242.88 437.76 242.235 437.76 241.44C437.76 240.645 438.405 240 439.2 240C439.995 240 440.64 240.645 440.64 241.44ZM446.4 241.44C446.4 242.235 445.755 242.88 444.96 242.88C444.165 242.88 443.52 242.235 443.52 241.44C443.52 240.645 444.165 240 444.96 240C445.755 240 446.4 240.645 446.4 241.44ZM452.16 241.44C452.16 242.235 451.515 242.88 450.72 242.88C449.925 242.88 449.28 242.235 449.28 241.44C449.28 240.645 449.925 240 450.72 240C451.515 240 452.16 240.645 452.16 241.44ZM457.92 241.44C457.92 242.235 457.275 242.88 456.48 242.88C455.685 242.88 455.04 242.235 455.04 241.44C455.04 240.645 455.685 240 456.48 240C457.275 240 457.92 240.645 457.92 241.44ZM463.68 241.44C463.68 242.235 463.035 242.88 462.24 242.88C461.445 242.88 460.8 242.235 460.8 241.44C460.8 240.645 461.445 240 462.24 240C463.035 240 463.68 240.645 463.68 241.44ZM469.44 241.44C469.44 242.235 468.795 242.88 468 242.88C467.205 242.88 466.56 242.235 466.56 241.44C466.56 240.645 467.205 240 468 240C468.795 240 469.44 240.645 469.44 241.44ZM475.2 241.44C475.2 242.235 474.555 242.88 473.76 242.88C472.965 242.88 472.32 242.235 472.32 241.44C472.32 240.645 472.965 240 473.76 240C474.555 240 475.2 240.645 475.2 241.44ZM480.96 241.44C480.96 242.235 480.315 242.88 479.52 242.88C478.725 242.88 478.08 242.235 478.08 241.44C478.08 240.645 478.725 240 479.52 240C480.315 240 480.96 240.645 480.96 241.44ZM486.72 241.44C486.72 242.235 486.075 242.88 485.28 242.88C484.485 242.88 483.84 242.235 483.84 241.44C483.84 240.645 484.485 240 485.28 240C486.075 240 486.72 240.645 486.72 241.44ZM492.48 241.44C492.48 242.235 491.835 242.88 491.04 242.88C490.245 242.88 489.6 242.235 489.6 241.44C489.6 240.645 490.245 240 491.04 240C491.835 240 492.48 240.645 492.48 241.44ZM498.24 241.44C498.24 242.235 497.595 242.88 496.8 242.88C496.005 242.88 495.36 242.235 495.36 241.44C495.36 240.645 496.005 240 496.8 240C497.595 240 498.24 240.645 498.24 241.44ZM504 241.44C504 242.235 503.355 242.88 502.56 242.88C501.765 242.88 501.12 242.235 501.12 241.44C501.12 240.645 501.765 240 502.56 240C503.355 240 504 240.645 504 241.44ZM509.76 241.44C509.76 242.235 509.115 242.88 508.32 242.88C507.525 242.88 506.88 242.235 506.88 241.44C506.88 240.645 507.525 240 508.32 240C509.115 240 509.76 240.645 509.76 241.44ZM515.52 241.44C515.52 242.235 514.875 242.88 514.08 242.88C513.285 242.88 512.64 242.235 512.64 241.44C512.64 240.645 513.285 240 514.08 240C514.875 240 515.52 240.645 515.52 241.44ZM521.28 241.44C521.28 242.235 520.635 242.88 519.84 242.88C519.045 242.88 518.4 242.235 518.4 241.44C518.4 240.645 519.045 240 519.84 240C520.635 240 521.28 240.645 521.28 241.44ZM527.04 241.44C527.04 242.235 526.395 242.88 525.6 242.88C524.805 242.88 524.16 242.235 524.16 241.44C524.16 240.645 524.805 240 525.6 240C526.395 240 527.04 240.645 527.04 241.44ZM532.8 241.44C532.8 242.235 532.155 242.88 531.36 242.88C530.565 242.88 529.92 242.235 529.92 241.44C529.92 240.645 530.565 240 531.36 240C532.155 240 532.8 240.645 532.8 241.44ZM538.56 241.44C538.56 242.235 537.915 242.88 537.12 242.88C536.325 242.88 535.68 242.235 535.68 241.44C535.68 240.645 536.325 240 537.12 240C537.915 240 538.56 240.645 538.56 241.44ZM544.32 241.44C544.32 242.235 543.675 242.88 542.88 242.88C542.085 242.88 541.44 242.235 541.44 241.44C541.44 240.645 542.085 240 542.88 240C543.675 240 544.32 240.645 544.32 241.44ZM550.08 241.44C550.08 242.235 549.435 242.88 548.64 242.88C547.845 242.88 547.2 242.235 547.2 241.44C547.2 240.645 547.845 240 548.64 240C549.435 240 550.08 240.645 550.08 241.44ZM555.84 241.44C555.84 242.235 555.195 242.88 554.4 242.88C553.605 242.88 552.96 242.235 552.96 241.44C552.96 240.645 553.605 240 554.4 240C555.195 240 555.84 240.645 555.84 241.44ZM561.6 241.44C561.6 242.235 560.955 242.88 560.16 242.88C559.365 242.88 558.72 242.235 558.72 241.44C558.72 240.645 559.365 240 560.16 240C560.955 240 561.6 240.645 561.6 241.44ZM567.36 241.44C567.36 242.235 566.715 242.88 565.92 242.88C565.125 242.88 564.48 242.235 564.48 241.44C564.48 240.645 565.125 240 565.92 240C566.715 240 567.36 240.645 567.36 241.44ZM573.12 241.44C573.12 242.235 572.475 242.88 571.68 242.88C570.885 242.88 570.24 242.235 570.24 241.44C570.24 240.645 570.885 240 571.68 240C572.475 240 573.12 240.645 573.12 241.44Z" fill="black"/>
<path d="M402 123C402 190.931 346.931 246 279 246C211.069 246 156 190.931 156 123C156 55.069 211.069 0 279 0C346.931 0 402 55.069 402 123Z" fill="white" style="mix-blend-mode:exclusion"/>
</svg>
